<?xml version="1.0" encoding="utf-8"?>
<!-- Generator: Adobe Illustrator 27.0.0, SVG Export Plug-In . SVG Version: 6.00 Build 0)  -->
<svg version="1.1" id="Layer_1" xmlns="http://www.w3.org/2000/svg" xmlns:xlink="http://www.w3.org/1999/xlink" x="0px" y="0px"
	 viewBox="0 0 892.9 113" style="enable-background:new 0 0 892.9 113;" xml:space="preserve">

<g>
	<g>
		<rect x="-1.2" y="0" fill="#231F20" width="895.3" height="113"/>
		<rect x="133.8" y="6.2" fill="#E82329" width="754" height="100.4"/>
		<g>
			<g>
				<path fill="#231F20" d="M159.5,26H177v47.1h22.9v13.5h-40.3V26z"/>
				<path fill="#231F20" d="M207.1,26h17.5v47.1h22.9v13.5h-40.3V26z"/>
				<path fill="#231F20" d="M251.2,56.7V56c0-18.5,13.9-30.8,32-30.8c18.5,0,32.1,11.6,32.1,30.4v0.7c0,18.6-12.8,31.4-32.4,31.4
					C263.4,87.6,251.2,74.9,251.2,56.7z M297.2,56.5v-0.7c0-10.8-5.4-17.1-14-17.1c-8.6,0-13.9,6.2-13.9,17.2v0.7
					c0,11,5.6,17.4,14,17.4C291.9,74,297.2,67.3,297.2,56.5z"/>
				<path fill="#231F20" d="M334.3,60.7L314.6,26h18.9l10.3,20.4L354,26h16.6l-18.8,34.7v25.9h-17.5V60.7z"/>
				<path fill="#231F20" d="M378.5,26h22c21.5,0,32.5,10.8,32.5,29.6v0.7c0,18.9-11.2,30.3-32.5,30.3h-22V26z M400,73.2
					c10.3,0,14.9-5.4,14.9-16.7v-0.7c0-11.5-4.6-16.4-15.1-16.4H396v33.8H400z"/>
				<path fill="#231F20" d="M440.5,67.3h16.5c0.4,4.3,2.4,7.9,9.6,7.9c5,0,7.8-2.5,7.8-6c0-3.7-2.3-4.7-9.6-5.8
					c-17.1-2-22.9-7.1-22.9-19.3c0-10.9,9-18.9,23.5-18.9c14.6,0,22.8,6.1,23.9,18.9h-16.1c-0.6-4.3-3.1-6.5-7.8-6.5
					c-4.7,0-7,2.1-7,5.2c0,3.4,1.9,4.9,9.4,5.9c15.3,1.7,23.2,5.7,23.2,18.8c0,11.1-8.8,20.2-24.4,20.2
					C449.7,87.6,441,80.5,440.5,67.3z"/>
			</g>
			<g>
				<g>
					<path fill="#231F20" d="M527.1,26.1h22.6l11.6,32.3L573,26.1h22.2v60.6h-17.3V49l-14.8,37.7h-5.8L542.6,49v37.7h-15.5V26.1z"/>
					<path fill="#231F20" d="M670.4,39.5h-15.7V26.1h48.8v13.4h-15.7v47.2h-17.5V39.5z"/>
					<path fill="#231F20" d="M759.8,86.7h-18.4l-3.2-11.3h-20.1l-3.2,11.3h-16.2l19.4-60.6h22.5L759.8,86.7 M721.5,63.5h13.3l-6.6-23.3
						L721.5,63.5z"/>
					<path fill="#231F20" d="M766.7,26.1h17.5v47.1h22.9v13.5h-40.3V26.1z"/>
					<path fill="#231F20" d="M812.9,67.5h16.5c0.4,4.3,2.4,7.9,9.6,7.9c5,0,7.8-2.5,7.8-6c0-3.7-2.3-4.7-9.6-5.8
						c-17.1-2-22.9-7.1-22.9-19.3c0-10.9,9-18.9,23.5-18.9c14.6,0,22.8,6.1,23.9,18.9h-16.1c-0.6-4.3-3.1-6.5-7.8-6.5
						c-4.7,0-7,2.1-7,5.2c0,3.4,1.9,4.9,9.4,5.9c15.3,1.7,23.2,5.7,23.2,18.8c0,11.1-8.8,20.2-24.4,20.2
						C822,87.7,813.4,80.6,812.9,67.5z"/>
				</g>
				<polygon fill="#231F20" points="648.7,73.5 618.6,73.5 618.6,60.7 645.4,60.7 647.2,60.7 647.2,58.9 647.2,49.3 647.2,47.5 
					645.4,47.5 618.6,47.5 618.6,39.3 647.5,39.3 649.3,39.3 649.3,37.5 649.3,27.9 649.3,26.1 647.5,26.1 605.3,26.1 603.5,26.1 
					603.5,27.9 603.5,84.9 603.5,86.7 605.3,86.7 648.7,86.7 650.4,86.7 650.4,84.9 650.4,75.3 650.4,73.5 				"/>
			</g>
		</g>
	</g>
	<g>
		<g>
			<path fill="none" d="M57.2,99.2l1.3-1.3c-0.3,0-0.5-0.1-0.8-0.1L57.2,99.2z"/>
			<path fill="none" d="M70.7,42c0.5,0.2,0.9,0.5,1.4,0.8c1.9,1.3,3.6,2.9,4.9,4.9c0.3,0.4,0.6,0.9,0.8,1.4c1,2,1.7,4.3,1.8,6.6
				c0,0.3,0,0.5,0,0.8s0,0.5,0,0.8c-0.1,2.4-0.7,4.6-1.8,6.6c-0.2,0.5-0.5,0.9-0.8,1.4c-1.3,1.9-2.9,3.6-4.9,4.9
				c-0.4,0.3-0.9,0.6-1.4,0.8c-1,0.5-2.1,1-3.3,1.3l0,7.5c2.5-0.4,4.8-1.2,7-2.4c0.5-0.3,0.9-0.5,1.4-0.8c3.1-1.9,5.6-4.5,7.5-7.5
				c0.3-0.5,0.6-0.9,0.8-1.4c1.7-3.1,2.6-6.6,2.8-10.3c0-0.3,0-0.5,0-0.8c0-0.3,0-0.5,0-0.8c-0.1-3.7-1.1-7.2-2.8-10.3
				c-0.3-0.5-0.5-0.9-0.8-1.4c-1.9-3.1-4.5-5.6-7.5-7.5c-0.5-0.3-0.9-0.6-1.4-0.8c-2.1-1.1-4.5-2-7-2.4l0,7.5
				C68.5,41.1,69.6,41.5,70.7,42z"/>
			<path fill="none" d="M67.4,65.3l0,5.3c0.9-0.3,1.7-0.6,2.5-1L67.4,65.3z"/>
			<path fill="none" d="M75.5,64.5l-8.1-4.7l0,2.3l3.9,6.7C73,67.7,74.4,66.2,75.5,64.5z"/>
			<path fill="none" d="M57.7,83.3l0-1.5c-0.3-0.1-0.5-0.1-0.8-0.2l-0.7,1.3l0.1-1.5c-0.3-0.1-0.5-0.1-0.8-0.2l-0.8,1.3l0.1-1.5
				c-0.3-0.1-0.5-0.2-0.8-0.3l-0.9,1.2l0.2-1.5c-0.3-0.1-0.5-0.2-0.7-0.3l-0.9,1.2l0.3-1.5c-0.2-0.1-0.5-0.2-0.7-0.4l-1,1.1
				l-5.4,9.3c4.3,2.4,9.1,3.9,14.2,4.5l0-12.3c-0.3,0-0.5-0.1-0.8-0.1L57.7,83.3z"/>
			<path fill="none" d="M77.9,57.3H67.4l0,0.7l8.9,5.2C77.2,61.4,77.8,59.4,77.9,57.3z"/>
			<path fill="none" d="M48.6,55.7h10.6l0-0.6l-9-5.2C49.3,51.6,48.7,53.6,48.6,55.7z"/>
			<path fill="none" d="M55.2,68.8l3.9-6.8l0-2.2L51,64.5C52.1,66.2,53.5,67.7,55.2,68.8z"/>
			<path fill="none" d="M50.2,63.1l9-5.2l0-0.6H48.6C48.7,59.4,49.3,61.4,50.2,63.1z"/>
			<path fill="none" d="M81.6,89.9l-5.4-9.3l-1-1.1c-0.2,0.1-0.5,0.3-0.7,0.4l0.3,1.5l-0.9-1.2c-0.2,0.1-0.5,0.2-0.7,0.3l0.2,1.5
				l-0.9-1.2c-0.3,0.1-0.5,0.2-0.8,0.3l0.1,1.5L71,81.1c-0.3,0.1-0.5,0.2-0.8,0.2l0.1,1.5l-0.7-1.3c-0.3,0.1-0.5,0.1-0.8,0.2l0,1.5
				l-0.6-1.4c-0.2,0-0.5,0.1-0.7,0.1l0,12.3C72.5,93.8,77.3,92.2,81.6,89.9z"/>
			<path fill="none" d="M68.1,31.1l0.6-1.4l0,1.5c0.3,0.1,0.5,0.1,0.8,0.2l0.7-1.3l-0.1,1.5c0.3,0.1,0.5,0.1,0.8,0.2l0.8-1.3
				l-0.1,1.5c0.3,0.1,0.5,0.2,0.8,0.3l0.9-1.2l-0.2,1.5c0.3,0.1,0.5,0.2,0.7,0.3l0.9-1.2l-0.3,1.5c0.2,0.1,0.5,0.2,0.7,0.4l1-1.1
				l5.4-9.3c-4.3-2.4-9.1-3.9-14.2-4.4l0,12.3C67.6,31,67.9,31.1,68.1,31.1z"/>
			<path fill="none" d="M71.3,44.2l-3.9,6.7l0,2.3l8.1-4.7C74.4,46.8,73,45.3,71.3,44.2z"/>
			<path fill="none" d="M76.3,49.9L67.4,55l0,0.7h10.5C77.8,53.6,77.2,51.6,76.3,49.9z"/>
			<path fill="none" d="M67.4,42.4l0,5.3l2.5-4.3C69.1,43,68.2,42.7,67.4,42.4z"/>
			<path fill="none" d="M69.3,99.2l-0.6-1.4c-0.3,0-0.5,0.1-0.8,0.1"/>
			<path fill="none" d="M59.1,70.6l0-5.4l-2.5,4.4C57.4,70,58.3,70.3,59.1,70.6z"/>
			<path fill="none" d="M95.8,36.8c-3.2-5.2-7.6-9.7-12.8-12.8l-5.4,9.3l-0.5,1.4c0.2,0.1,0.5,0.3,0.7,0.4l1.1-1l-0.6,1.4
				c0.2,0.2,0.4,0.3,0.7,0.5l1.2-1l-0.7,1.4c0.2,0.2,0.4,0.3,0.6,0.5l1.2-0.9l-0.7,1.3c0.2,0.2,0.4,0.4,0.6,0.6l1.3-0.8l-0.8,1.3
				c0.2,0.2,0.4,0.4,0.6,0.6l1.3-0.7l-0.9,1.2c0.2,0.2,0.4,0.4,0.5,0.6l1.4-0.7l-1,1.2c0.2,0.2,0.3,0.4,0.5,0.7l1.4-0.6l-1,1.1
				c0.2,0.2,0.3,0.5,0.4,0.7l1.4-0.5L95.8,36.8z"/>
			<path fill="none" d="M51,48.5l8.2,4.7l0-2.2l-3.9-6.8C53.5,45.3,52.1,46.8,51,48.5z"/>
			<path fill="none" d="M40.3,68.5c-0.1-0.2-0.3-0.5-0.4-0.7L38.5,68l1.2-0.9c-0.1-0.2-0.2-0.5-0.3-0.7l-1.5,0.2l1.2-0.9
				c-0.1-0.3-0.2-0.5-0.3-0.8l-1.5,0.1l1.3-0.8c-0.1-0.3-0.2-0.5-0.2-0.8l-1.5,0.1l1.3-0.7c-0.1-0.3-0.1-0.5-0.2-0.8l-1.5,0l1.4-0.6
				c-0.1-0.3-0.1-0.5-0.1-0.8l-1.5-0.1l1.4-0.6c0-0.3-0.1-0.5-0.1-0.8L36,58.9l1.5-0.5c0-0.3,0-0.5,0-0.8l-1.5-0.3H25.2
				c0.1,6.3,1.8,12.3,4.7,17.5l9.3-5.4L40.3,68.5z"/>
			<path fill="none" d="M85.1,70.4c-0.1,0.2-0.3,0.5-0.4,0.7l1,1.1l-1.4-0.6c-0.2,0.2-0.3,0.4-0.5,0.7l1,1.2l-1.4-0.7
				c-0.2,0.2-0.3,0.4-0.5,0.6l0.9,1.2l-1.3-0.7c-0.2,0.2-0.4,0.4-0.6,0.6l0.8,1.3L81.3,75c-0.2,0.2-0.4,0.4-0.6,0.6l0.7,1.3L80.2,76
				c-0.2,0.2-0.4,0.4-0.6,0.5l0.7,1.4L79,77c-0.2,0.2-0.4,0.3-0.7,0.5l0.6,1.4l-1.1-1c-0.2,0.2-0.5,0.3-0.7,0.4l0.5,1.4l5.4,9.3
				c5.2-3.2,9.7-7.6,12.8-12.8l-9.3-5.4L85.1,70.4z"/>
			<path fill="none" d="M49.4,78.3c-0.2-0.1-0.5-0.3-0.7-0.4l-1.1,1l0.6-1.4c-0.2-0.2-0.4-0.3-0.7-0.5l-1.2,1l0.7-1.4
				c-0.2-0.2-0.4-0.3-0.6-0.5l-1.2,0.9l0.7-1.3c-0.2-0.2-0.4-0.4-0.6-0.6l-1.3,0.8l0.8-1.3c-0.2-0.2-0.4-0.4-0.6-0.6l-1.3,0.7
				l0.9-1.2c-0.2-0.2-0.4-0.4-0.5-0.6l-1.4,0.7l1-1.2c-0.2-0.2-0.3-0.4-0.5-0.7l-1.4,0.6l1-1.1c-0.2-0.2-0.3-0.5-0.4-0.7L40,70.8
				l-9.3,5.4c3.2,5.2,7.6,9.7,12.8,12.8l5.4-9.3L49.4,78.3z"/>
			<path fill="none" d="M89.1,57.6c0,0.3,0,0.5,0,0.8l1.5,0.5L89,59.1c0,0.3-0.1,0.5-0.1,0.8l1.4,0.6l-1.5,0.1
				c0,0.3-0.1,0.5-0.1,0.8L90,62l-1.5,0c-0.1,0.3-0.1,0.5-0.2,0.8l1.3,0.7l-1.5-0.1C88,63.8,88,64,87.9,64.3l1.3,0.8L87.7,65
				c-0.1,0.3-0.2,0.5-0.3,0.8l1.2,0.9l-1.5-0.2c-0.1,0.3-0.2,0.5-0.3,0.7L88,68l-1.5-0.3c-0.1,0.2-0.2,0.5-0.4,0.7l1.1,1l9.3,5.4
				c2.9-5.2,4.6-11.2,4.7-17.5H90.5L89.1,57.6z"/>
			<path fill="none" d="M87.3,43.5l-1.1,1c0.1,0.2,0.3,0.5,0.4,0.7l1.5-0.3l-1.2,0.9c0.1,0.2,0.2,0.5,0.3,0.7l1.5-0.2l-1.2,0.9
				c0.1,0.3,0.2,0.5,0.3,0.8l1.5-0.1l-1.3,0.8c0.1,0.3,0.2,0.5,0.2,0.8l1.5-0.1l-1.3,0.7c0.1,0.3,0.1,0.5,0.2,0.8l1.5,0l-1.4,0.6
				c0.1,0.3,0.1,0.5,0.1,0.8l1.5,0.1l-1.4,0.6c0,0.3,0.1,0.5,0.1,0.8l1.5,0.2L89,54.6c0,0.3,0,0.5,0,0.8l1.5,0.3h10.7
				c-0.1-6.3-1.8-12.3-4.7-17.5L87.3,43.5z"/>
			<path fill="none" d="M37.4,55.4c0-0.3,0-0.5,0-0.8L36,54.1l1.5-0.2c0-0.3,0.1-0.5,0.1-0.8l-1.4-0.6l1.5-0.1
				c0-0.3,0.1-0.5,0.1-0.8L36.5,51l1.5,0c0.1-0.3,0.1-0.5,0.2-0.8l-1.3-0.7l1.5,0.1c0.1-0.3,0.1-0.5,0.2-0.8l-1.3-0.8l1.5,0.1
				c0.1-0.3,0.2-0.5,0.3-0.8l-1.2-0.9l1.5,0.2c0.1-0.3,0.2-0.5,0.3-0.7l-1.2-0.9l1.5,0.3c0.1-0.2,0.2-0.5,0.4-0.7l-1.1-1l-9.3-5.4
				c-2.9,5.2-4.6,11.2-4.7,17.5h10.7L37.4,55.4z"/>
			<path fill="none" d="M50.7,36.5c-3.1,1.9-5.6,4.5-7.5,7.5c-0.3,0.5-0.6,0.9-0.8,1.4c-1.7,3.1-2.6,6.6-2.8,10.3c0,0.3,0,0.5,0,0.8
				c0,0.3,0,0.5,0,0.8c0.1,3.7,1.1,7.2,2.8,10.3c0.3,0.5,0.5,0.9,0.8,1.4c1.9,3.1,4.5,5.6,7.5,7.5c0.5,0.3,0.9,0.6,1.4,0.8
				c2.2,1.2,4.5,2,7,2.4l0-7.5c-1.2-0.3-2.3-0.7-3.3-1.3c-0.5-0.2-0.9-0.5-1.4-0.8c-1.9-1.3-3.6-2.9-4.9-4.9
				c-0.3-0.4-0.6-0.9-0.8-1.4c-1-2-1.7-4.3-1.8-6.6c0-0.3,0-0.5,0-0.8s0-0.5,0-0.8c0.1-2.4,0.7-4.6,1.8-6.6c0.2-0.5,0.5-0.9,0.8-1.4
				c1.3-1.9,2.9-3.6,4.9-4.9c0.4-0.3,0.9-0.6,1.4-0.8c1.1-0.5,2.2-1,3.4-1.3l0-7.5c-2.5,0.4-4.9,1.2-7,2.4
				C51.7,35.9,51.2,36.2,50.7,36.5z"/>
			<path fill="none" d="M59.2,47.8l0-5.4c-0.9,0.3-1.7,0.6-2.6,1L59.2,47.8z"/>
			<path fill="none" d="M59.2,18.7c-5.1,0.5-10,2.1-14.3,4.5l5.4,9.3l1,1.1c0.2-0.1,0.5-0.3,0.7-0.4l-0.3-1.5l0.9,1.2
				c0.2-0.1,0.5-0.2,0.7-0.3l-0.2-1.5l0.9,1.2c0.3-0.1,0.5-0.2,0.8-0.3l-0.1-1.5l0.8,1.3c0.3-0.1,0.5-0.2,0.8-0.2l-0.1-1.5l0.7,1.3
				c0.3-0.1,0.5-0.1,0.8-0.2l0-1.5l0.6,1.4c0.3-0.1,0.5-0.1,0.8-0.1"/>
			<path fill="none" d="M41.4,42.6c0.1-0.2,0.3-0.5,0.4-0.7l-1-1.1l1.4,0.6c0.2-0.2,0.3-0.4,0.5-0.7l-1-1.2l1.4,0.7
				c0.2-0.2,0.3-0.4,0.5-0.6l-0.9-1.2l1.3,0.7c0.2-0.2,0.4-0.4,0.6-0.6l-0.8-1.3l1.3,0.8c0.2-0.2,0.4-0.4,0.6-0.6l-0.7-1.3l1.2,0.9
				c0.2-0.2,0.4-0.4,0.6-0.5l-0.7-1.4l1.2,1c0.2-0.2,0.4-0.3,0.7-0.5l-0.6-1.4l1.1,1c0.2-0.2,0.5-0.3,0.7-0.4l-0.5-1.4l-5.4-9.3
				c-5.2,3.2-9.7,7.6-12.8,12.8l9.3,5.4L41.4,42.6z"/>
			<path fill="#FFFFFF" d="M57.7,97.8c0.3,0,0.5,0.1,0.8,0.1l0.6,0.1l0-0.7l0-2.9c-5.1-0.5-9.9-2.1-14.2-4.5l5.4-9.3l1-1.1
				c0.2,0.1,0.5,0.3,0.7,0.4l-0.3,1.5l0.9-1.2c0.2,0.1,0.5,0.2,0.7,0.3l-0.2,1.5l0.9-1.2c0.3,0.1,0.5,0.2,0.8,0.3l-0.1,1.5l0.8-1.3
				c0.3,0.1,0.5,0.2,0.8,0.2l-0.1,1.5l0.7-1.3c0.3,0.1,0.5,0.1,0.8,0.2l0,1.5l0.6-1.4c0.3,0.1,0.5,0.1,0.8,0.1l0-2.3
				c-2.5-0.4-4.9-1.2-7-2.4c-0.5-0.3-0.9-0.5-1.4-0.8c-3.1-1.9-5.6-4.5-7.5-7.5c-0.3-0.5-0.6-0.9-0.8-1.4c-1.7-3.1-2.6-6.6-2.8-10.3
				c0-0.3,0-0.5,0-0.8c0-0.3,0-0.5,0-0.8c0.1-3.7,1.1-7.2,2.8-10.3c0.3-0.5,0.5-0.9,0.8-1.4c1.9-3.1,4.5-5.6,7.5-7.5
				c0.5-0.3,0.9-0.6,1.4-0.8c2.2-1.2,4.5-2,7-2.4l0-2.3c-0.3,0-0.5,0.1-0.8,0.1l-0.6-1.4l0,1.5c-0.3,0.1-0.5,0.1-0.8,0.2l-0.7-1.3
				l0.1,1.5c-0.3,0.1-0.5,0.1-0.8,0.2l-0.8-1.3l0.1,1.5c-0.3,0.1-0.5,0.2-0.8,0.3l-0.9-1.2l0.2,1.5c-0.3,0.1-0.5,0.2-0.7,0.3
				l-0.9-1.2l0.3,1.5c-0.2,0.1-0.5,0.2-0.7,0.4l-1-1.1l-5.4-9.3c4.3-2.4,9.1-3.9,14.3-4.5l0-2.8l0-0.9c0,0-0.1,0-0.1,0
				c-0.4,0-0.9,0.1-1.3,0.2l-0.9-2.3l-0.2,2.4c-0.4,0.1-0.9,0.1-1.3,0.2l-1-2.2l-0.1,2.5c-0.4,0.1-0.9,0.2-1.3,0.3l-1.1-2.2l0.1,2.5
				c-0.4,0.1-0.8,0.2-1.3,0.4l-1.3-2.1l0.2,2.4c-0.4,0.1-0.8,0.3-1.2,0.4l-1.4-2l0.4,2.4c-0.4,0.2-0.8,0.3-1.2,0.5l-1.5-1.9l0.5,2.4
				c-0.4,0.2-0.8,0.4-1.2,0.6l-1.6-1.8l0.6,2.4c-0.4,0.2-0.8,0.4-1.1,0.7L40.1,19l0.8,2.3c-0.4,0.2-0.7,0.5-1.1,0.7L38,20.4l0.9,2.3
				c-0.4,0.3-0.7,0.5-1.1,0.8l-1.9-1.5l1,2.2c-0.3,0.3-0.7,0.6-1,0.8l-2-1.4l1.2,2.2c-0.3,0.3-0.6,0.6-1,0.9l-2.1-1.3l1.3,2.1
				c-0.3,0.3-0.6,0.6-0.9,1l-2.2-1.2l1.4,2c-0.3,0.3-0.6,0.7-0.8,1l-2.2-1l1.5,1.9c-0.3,0.3-0.5,0.7-0.8,1.1l-2.3-0.9l1.6,1.8
				c-0.2,0.4-0.5,0.7-0.7,1.1l-2.3-0.8l1.7,1.7c-0.2,0.4-0.4,0.8-0.7,1.1l-2.4-0.6l1.8,1.6c-0.2,0.4-0.4,0.8-0.6,1.2l-2.4-0.5
				l1.9,1.5c-0.2,0.4-0.4,0.8-0.5,1.2l-2.4-0.4l2,1.4c-0.2,0.4-0.3,0.8-0.4,1.2l-2.4-0.2l2.1,1.3c-0.1,0.4-0.3,0.8-0.4,1.3l-2.5-0.1
				l2.2,1.1c-0.1,0.4-0.2,0.9-0.3,1.3l-2.5,0.1l2.2,1c-0.1,0.4-0.2,0.9-0.2,1.3l-2.4,0.2l2.3,0.9c-0.1,0.4-0.1,0.9-0.2,1.3l-2.4,0.3
				l2.3,0.8c0,0.4-0.1,0.9-0.1,1.3l-2.4,0.5l2.4,0.6c0,0.2,0,0.4,0,0.7c0,0.2,0,0.4,0,0.7l-2.4,0.6l2.4,0.5c0,0.4,0,0.9,0.1,1.3
				l-2.3,0.8l2.4,0.3c0,0.4,0.1,0.9,0.2,1.3l-2.3,0.9l2.4,0.2c0.1,0.4,0.1,0.9,0.2,1.3l-2.2,1l2.5,0.1c0.1,0.4,0.2,0.9,0.3,1.3
				l-2.2,1.1l2.5-0.1c0.1,0.4,0.2,0.8,0.4,1.3l-2.1,1.3l2.4-0.2c0.1,0.4,0.3,0.8,0.4,1.2l-2,1.4l2.4-0.4c0.2,0.4,0.3,0.8,0.5,1.2
				l-1.9,1.5l2.4-0.5c0.2,0.4,0.4,0.8,0.6,1.2l-1.8,1.6l2.4-0.6c0.2,0.4,0.4,0.8,0.7,1.1l-1.7,1.7l2.3-0.8c0.2,0.4,0.5,0.7,0.7,1.1
				l-1.6,1.8l2.3-0.9c0.3,0.4,0.5,0.7,0.8,1.1l-1.5,1.9l2.2-1c0.3,0.3,0.6,0.7,0.8,1l-1.4,2l2.2-1.2c0.3,0.3,0.6,0.6,0.9,1l-1.3,2.1
				l2.1-1.3c0.3,0.3,0.6,0.6,1,0.9l-1.2,2.2l2-1.4c0.3,0.3,0.7,0.6,1,0.8l-1,2.2l1.9-1.5c0.3,0.3,0.7,0.5,1.1,0.8L38,92.6l1.8-1.6
				c0.4,0.2,0.7,0.5,1.1,0.7L40.1,94l1.7-1.7c0.4,0.2,0.8,0.4,1.1,0.7l-0.6,2.4l1.6-1.8c0.4,0.2,0.8,0.4,1.2,0.6l-0.5,2.4l1.5-1.9
				c0.4,0.2,0.8,0.4,1.2,0.5L47,97.4l1.4-2c0.4,0.2,0.8,0.3,1.2,0.4l-0.2,2.4l1.3-2.1c0.4,0.1,0.8,0.3,1.3,0.4L51.8,99l1.1-2.2
				c0.4,0.1,0.9,0.2,1.3,0.3l0.1,2.5l1-2.2c0.4,0.1,0.9,0.2,1.3,0.2l0,2.4L57.7,97.8z M43.5,23.9l5.4,9.3l0.5,1.4
				c-0.2,0.1-0.5,0.3-0.7,0.4l-1.1-1l0.6,1.4c-0.2,0.2-0.4,0.3-0.7,0.5l-1.2-1l0.7,1.4c-0.2,0.2-0.4,0.3-0.6,0.5l-1.2-0.9l0.7,1.3
				c-0.2,0.2-0.4,0.4-0.6,0.6l-1.3-0.8l0.8,1.3c-0.2,0.2-0.4,0.4-0.6,0.6l-1.3-0.7l0.9,1.2c-0.2,0.2-0.4,0.4-0.5,0.6l-1.4-0.7l1,1.2
				c-0.2,0.2-0.3,0.4-0.5,0.7l-1.4-0.6l1,1.1c-0.2,0.2-0.3,0.5-0.4,0.7L40,42.2l-9.3-5.4C33.9,31.5,38.3,27.1,43.5,23.9z M29.9,38.2
				l9.3,5.4l1.1,1c-0.1,0.2-0.3,0.5-0.4,0.7l-1.5-0.3l1.2,0.9c-0.1,0.2-0.2,0.5-0.3,0.7l-1.5-0.2l1.2,0.9c-0.1,0.3-0.2,0.5-0.3,0.8
				l-1.5-0.1l1.3,0.8c-0.1,0.3-0.2,0.5-0.2,0.8l-1.5-0.1l1.3,0.7c-0.1,0.3-0.1,0.5-0.2,0.8l-1.5,0l1.4,0.6c-0.1,0.3-0.1,0.5-0.1,0.8
				l-1.5,0.1l1.4,0.6c0,0.3-0.1,0.5-0.1,0.8L36,54.1l1.5,0.5c0,0.3,0,0.5,0,0.8l-1.5,0.3H25.2C25.3,49.3,27,43.4,29.9,38.2z
				 M29.9,74.8c-2.9-5.2-4.6-11.2-4.7-17.5h10.7l1.5,0.3c0,0.3,0,0.5,0,0.8L36,58.9l1.5,0.2c0,0.3,0.1,0.5,0.1,0.8l-1.4,0.6l1.5,0.1
				c0,0.3,0.1,0.5,0.1,0.8L36.5,62l1.5,0c0.1,0.3,0.1,0.5,0.2,0.8l-1.3,0.7l1.5-0.1c0.1,0.3,0.1,0.5,0.2,0.8l-1.3,0.8l1.5-0.1
				c0.1,0.3,0.2,0.5,0.3,0.8l-1.2,0.9l1.5-0.2c0.1,0.3,0.2,0.5,0.3,0.7L38.5,68l1.5-0.3c0.1,0.2,0.2,0.5,0.4,0.7l-1.1,1L29.9,74.8z
				 M43.5,89.1c-5.2-3.2-9.7-7.6-12.8-12.8l9.3-5.4l1.4-0.5c0.1,0.2,0.3,0.5,0.4,0.7l-1,1.1l1.4-0.6c0.2,0.2,0.3,0.4,0.5,0.7l-1,1.2
				l1.4-0.7c0.2,0.2,0.3,0.4,0.5,0.6l-0.9,1.2l1.3-0.7c0.2,0.2,0.4,0.4,0.6,0.6l-0.8,1.3l1.3-0.8c0.2,0.2,0.4,0.4,0.6,0.6l-0.7,1.3
				l1.2-0.9c0.2,0.2,0.4,0.4,0.6,0.5l-0.7,1.4l1.2-1c0.2,0.2,0.4,0.3,0.7,0.5l-0.6,1.4l1.1-1c0.2,0.2,0.5,0.3,0.7,0.4l-0.5,1.4
				L43.5,89.1z"/>
			<path fill="#FFFFFF" d="M69.7,99.9l0.1-2.3c0.4-0.1,0.9-0.1,1.3-0.2l1,2.2l0.1-2.5c0.4-0.1,0.9-0.2,1.3-0.3l1.1,2.2l-0.1-2.5
				c0.4-0.1,0.8-0.2,1.3-0.4l1.3,2.1l-0.2-2.4c0.4-0.1,0.8-0.3,1.2-0.4l1.4,2L79.1,95c0.4-0.2,0.8-0.3,1.2-0.5l1.5,1.9L81.3,94
				c0.4-0.2,0.8-0.4,1.2-0.6l1.6,1.8l-0.6-2.4c0.4-0.2,0.8-0.4,1.1-0.7l1.7,1.7l-0.8-2.3c0.4-0.2,0.7-0.5,1.1-0.7l1.8,1.6l-0.9-2.3
				c0.4-0.3,0.7-0.5,1.1-0.8l1.9,1.5l-1-2.2c0.3-0.3,0.7-0.6,1-0.8l2,1.4l-1.2-2.2c0.3-0.3,0.6-0.6,1-0.9l2.1,1.3l-1.3-2.1
				c0.3-0.3,0.6-0.6,0.9-1l2.2,1.2l-1.4-2c0.3-0.3,0.6-0.7,0.8-1l2.2,1l-1.5-1.9c0.3-0.3,0.5-0.7,0.8-1.1l2.3,0.9l-1.6-1.8
				c0.2-0.4,0.5-0.7,0.7-1.1l2.3,0.8L99,77.9c0.2-0.4,0.4-0.8,0.7-1.1l2.4,0.6l-1.8-1.6c0.2-0.4,0.4-0.8,0.6-1.2l2.4,0.5l-1.9-1.5
				c0.2-0.4,0.4-0.8,0.5-1.2l2.4,0.4l-2-1.4c0.2-0.4,0.3-0.8,0.4-1.2l2.4,0.2l-2.1-1.3c0.1-0.4,0.3-0.8,0.4-1.3l2.5,0.1l-2.2-1.1
				c0.1-0.4,0.2-0.9,0.3-1.3l2.5-0.1l-2.2-1c0.1-0.4,0.2-0.9,0.2-1.3l2.4-0.2l-2.3-0.9c0.1-0.4,0.1-0.9,0.2-1.3l2.4-0.3l-2.3-0.8
				c0-0.4,0.1-0.9,0.1-1.3l2.4-0.5l-2.4-0.6c0-0.2,0-0.4,0-0.7c0-0.2,0-0.4,0-0.7l2.4-0.6l-2.4-0.5c0-0.4,0-0.9-0.1-1.3l2.3-0.8
				l-2.4-0.3c0-0.4-0.1-0.9-0.2-1.3l2.3-0.9l-2.4-0.2c-0.1-0.4-0.1-0.9-0.2-1.3l2.2-1l-2.5-0.1c-0.1-0.4-0.2-0.9-0.3-1.3l2.2-1.1
				l-2.5,0.1c-0.1-0.4-0.2-0.8-0.4-1.3l2.1-1.3l-2.4,0.2c-0.1-0.4-0.3-0.8-0.4-1.2l2-1.4l-2.4,0.4c-0.2-0.4-0.3-0.8-0.5-1.2l1.9-1.5
				l-2.4,0.5c-0.2-0.4-0.4-0.8-0.6-1.2l1.8-1.6l-2.4,0.6c-0.2-0.4-0.4-0.8-0.7-1.1l1.7-1.7l-2.3,0.8c-0.2-0.4-0.5-0.7-0.7-1.1
				l1.6-1.8L97,32.1c-0.3-0.4-0.5-0.7-0.8-1.1l1.5-1.9l-2.2,1c-0.3-0.3-0.6-0.7-0.8-1l1.4-2L94,28.4c-0.3-0.3-0.6-0.6-0.9-1l1.3-2.1
				l-2.1,1.3c-0.3-0.3-0.6-0.6-1-0.9l1.2-2.2l-2,1.4c-0.3-0.3-0.7-0.6-1-0.8l1-2.2l-1.9,1.5c-0.3-0.3-0.7-0.5-1.1-0.8l0.9-2.3
				L86.7,22c-0.4-0.2-0.7-0.5-1.1-0.7l0.8-2.3l-1.7,1.7c-0.4-0.2-0.8-0.4-1.1-0.7l0.6-2.4l-1.6,1.8c-0.4-0.2-0.8-0.4-1.2-0.6
				l0.5-2.4l-1.5,1.9c-0.4-0.2-0.8-0.4-1.2-0.5l0.4-2.4l-1.4,2c-0.4-0.2-0.8-0.3-1.2-0.4l0.2-2.4l-1.3,2.1c-0.4-0.1-0.8-0.3-1.3-0.4
				l0.1-2.5l-1.1,2.2c-0.4-0.1-0.9-0.2-1.3-0.3l-0.1-2.5l-1,2.2c-0.4-0.1-0.9-0.2-1.3-0.2l-0.2-2.4l-0.9,2.3
				c-0.4-0.1-0.9-0.1-1.3-0.2l0,3.6c5.1,0.5,9.9,2.1,14.2,4.4l-5.4,9.3l-1,1.1c-0.2-0.1-0.5-0.3-0.7-0.4l0.3-1.5l-0.9,1.2
				c-0.2-0.1-0.5-0.2-0.7-0.3l0.2-1.5l-0.9,1.2c-0.3-0.1-0.5-0.2-0.8-0.3l0.1-1.5L71,31.8c-0.3-0.1-0.5-0.2-0.8-0.2l0.1-1.5
				l-0.7,1.3c-0.3-0.1-0.5-0.1-0.8-0.2l0-1.5l-0.6,1.4c-0.3,0-0.5-0.1-0.8-0.1l0,2.3c2.5,0.4,4.8,1.2,7,2.4c0.5,0.3,0.9,0.5,1.4,0.8
				c3.1,1.9,5.6,4.5,7.5,7.5c0.3,0.5,0.6,0.9,0.8,1.4c1.7,3.1,2.6,6.6,2.8,10.3c0,0.3,0,0.5,0,0.8c0,0.3,0,0.5,0,0.8
				c-0.1,3.7-1.1,7.2-2.8,10.3c-0.3,0.5-0.5,0.9-0.8,1.4c-1.9,3.1-4.5,5.6-7.5,7.5c-0.5,0.3-0.9,0.6-1.4,0.8c-2.1,1.1-4.5,2-7,2.4
				l0,2.3c0.2,0,0.5-0.1,0.7-0.1l0.6,1.4l0-1.5c0.3-0.1,0.5-0.1,0.8-0.2l0.7,1.3l-0.1-1.5c0.3-0.1,0.5-0.1,0.8-0.2l0.8,1.3l-0.1-1.5
				c0.3-0.1,0.5-0.2,0.8-0.3l0.9,1.2l-0.2-1.5c0.3-0.1,0.5-0.2,0.7-0.3l0.9,1.2l-0.3-1.5c0.2-0.1,0.5-0.2,0.7-0.4l1,1.1l5.4,9.3
				c-4.3,2.4-9.1,3.9-14.2,4.4l0,3c0,0,0,0.6,0,0.6c0.5,0,0.9-0.1,1.4-0.1L69.7,99.9z M84.6,41.9l1-1.1l-1.4,0.6
				c-0.2-0.2-0.3-0.4-0.5-0.7l1-1.2l-1.4,0.7c-0.2-0.2-0.3-0.4-0.5-0.6l0.9-1.2l-1.3,0.7c-0.2-0.2-0.4-0.4-0.6-0.6l0.8-1.3L81.3,38
				c-0.2-0.2-0.4-0.4-0.6-0.6l0.7-1.3L80.2,37c-0.2-0.2-0.4-0.4-0.6-0.5l0.7-1.4L79,36c-0.2-0.2-0.4-0.3-0.7-0.5l0.6-1.4l-1.1,1
				c-0.2-0.2-0.5-0.3-0.7-0.4l0.5-1.4l5.4-9.3c5.2,3.2,9.7,7.6,12.8,12.8l-9.3,5.4l-1.4,0.5C84.9,42.4,84.8,42.2,84.6,41.9z
				 M83,89.1l-5.4-9.3l-0.5-1.4c0.2-0.1,0.5-0.3,0.7-0.4l1.1,1l-0.6-1.4c0.2-0.2,0.4-0.3,0.7-0.5l1.2,1l-0.7-1.4
				c0.2-0.2,0.4-0.3,0.6-0.5l1.2,0.9l-0.7-1.3c0.2-0.2,0.4-0.4,0.6-0.6l1.3,0.8l-0.8-1.3c0.2-0.2,0.4-0.4,0.6-0.6l1.3,0.7l-0.9-1.2
				c0.2-0.2,0.4-0.4,0.5-0.6l1.4,0.7l-1-1.2c0.2-0.2,0.3-0.4,0.5-0.7l1.4,0.6l-1-1.1c0.2-0.2,0.3-0.5,0.4-0.7l1.4,0.5l9.3,5.4
				C92.6,81.5,88.2,85.9,83,89.1z M96.6,74.8l-9.3-5.4l-1.1-1c0.1-0.2,0.3-0.5,0.4-0.7L88,68l-1.2-0.9c0.1-0.2,0.2-0.5,0.3-0.7
				l1.5,0.2l-1.2-0.9c0.1-0.3,0.2-0.5,0.3-0.8l1.5,0.1l-1.3-0.8c0.1-0.3,0.2-0.5,0.2-0.8l1.5,0.1l-1.3-0.7c0.1-0.3,0.1-0.5,0.2-0.8
				l1.5,0l-1.4-0.6c0.1-0.3,0.1-0.5,0.1-0.8l1.5-0.1l-1.4-0.6c0-0.3,0.1-0.5,0.1-0.8l1.5-0.2L89,58.4c0-0.3,0-0.5,0-0.8l1.5-0.3
				h10.7C101.2,63.6,99.5,69.6,96.6,74.8z M90.5,55.7l-1.5-0.3c0-0.3,0-0.5,0-0.8l1.5-0.5L89,53.9c0-0.3-0.1-0.5-0.1-0.8l1.4-0.6
				l-1.5-0.1c0-0.3-0.1-0.5-0.1-0.8L90,51l-1.5,0c-0.1-0.3-0.1-0.5-0.2-0.8l1.3-0.7l-1.5,0.1c-0.1-0.3-0.1-0.5-0.2-0.8l1.3-0.8
				L87.7,48c-0.1-0.3-0.2-0.5-0.3-0.8l1.2-0.9l-1.5,0.2c-0.1-0.3-0.2-0.5-0.3-0.7l1.2-0.9l-1.5,0.3c-0.1-0.2-0.2-0.5-0.4-0.7l1.1-1
				l9.3-5.4c2.9,5.2,4.6,11.2,4.7,17.5H90.5z"/>
			<path fill="#FFFFFF" d="M72.1,70.2c1.9-1.3,3.6-2.9,4.9-4.9c0.3-0.4,0.6-0.9,0.8-1.4c1-2,1.7-4.3,1.8-6.6c0-0.3,0-0.5,0-0.8
				s0-0.5,0-0.8c-0.1-2.4-0.7-4.6-1.8-6.6c-0.2-0.5-0.5-0.9-0.8-1.4c-1.3-1.9-2.9-3.6-4.9-4.9c-0.4-0.3-0.9-0.6-1.4-0.8
				c-1-0.5-2.1-1-3.3-1.3l0,1.7c0.9,0.3,1.7,0.6,2.5,1l-2.5,4.3l0,3.2l3.9-6.7c1.7,1.1,3.2,2.6,4.3,4.3l-8.1,4.7l0,1.8l8.9-5.2
				c0.9,1.8,1.4,3.7,1.6,5.8H67.4l0,1.6h10.5c-0.1,2.1-0.7,4.1-1.6,5.8L67.4,58l0,1.8l8.1,4.7c-1.1,1.7-2.6,3.2-4.3,4.3l-3.9-6.7
				l0,3.2l2.5,4.3c-0.8,0.4-1.6,0.7-2.5,1l0,1.7c1.1-0.3,2.3-0.7,3.3-1.3C71.1,70.7,71.6,70.5,72.1,70.2z"/>
			<path fill="#FFFFFF" d="M54.4,42.8c-1.9,1.3-3.6,2.9-4.9,4.9c-0.3,0.4-0.6,0.9-0.8,1.4c-1,2-1.7,4.3-1.8,6.6c0,0.3,0,0.5,0,0.8
				s0,0.5,0,0.8c0.1,2.4,0.7,4.6,1.8,6.6c0.2,0.5,0.5,0.9,0.8,1.4c1.3,1.9,2.9,3.6,4.9,4.9c0.4,0.3,0.9,0.6,1.4,0.8
				c1.1,0.5,2.2,1,3.3,1.3l0-1.7c-0.9-0.3-1.7-0.6-2.5-1l2.5-4.4l0-3.2l-3.9,6.8c-1.7-1.1-3.2-2.6-4.3-4.3l8.2-4.7l0-1.8l-9,5.2
				c-0.9-1.8-1.4-3.7-1.6-5.8h10.6l0-1.6H48.6c0.1-2.1,0.7-4.1,1.6-5.8l9,5.2l0-1.8L51,48.5c1.1-1.7,2.6-3.2,4.3-4.3l3.9,6.8l0-3.2
				l-2.6-4.4c0.8-0.4,1.7-0.7,2.6-1l0-1.7c-1.2,0.3-2.3,0.7-3.4,1.3C55.3,42.3,54.9,42.5,54.4,42.8z"/>
		</g>
		<path fill-rule="evenodd" clip-rule="evenodd" fill="#FFFFFF" d="M58.3,10.6c0.5,0.5,1,1.1,1.5,1.5c1.2,1.2,1,3.7,1,3.7h0c0,0,0,0,0,0.1l0,81.3c0,0.4-0.1,0.8-0.4,1.1
			l-4.1,4.1l13.9,0l-4-4l0,0c-0.3-0.3-0.4-0.6-0.4-1.1l0-86.8C65.7,10.6,58.3,10.6,58.3,10.6z"/>
	</g>
</g>
</svg>

