<svg xmlns="http://www.w3.org/2000/svg" viewBox="0 0 492 492" width="492" height="492">
<rect width="100%" height="100%" fill="#fff"/>
<g fill="#000">
<rect x="48" y="48" width="12" height="12"/>
<rect x="60" y="48" width="12" height="12"/>
<rect x="72" y="48" width="12" height="12"/>
<rect x="84" y="48" width="12" height="12"/>
<rect x="96" y="48" width="12" height="12"/>
<rect x="108" y="48" width="12" height="12"/>
<rect x="120" y="48" width="12" height="12"/>
<rect x="168" y="48" width="12" height="12"/>
<rect x="216" y="48" width="12" height="12"/>
<rect x="252" y="48" width="12" height="12"/>
<rect x="264" y="48" width="12" height="12"/>
<rect x="276" y="48" width="12" height="12"/>
<rect x="312" y="48" width="12" height="12"/>
<rect x="324" y="48" width="12" height="12"/>
<rect x="360" y="48" width="12" height="12"/>
<rect x="372" y="48" width="12" height="12"/>
<rect x="384" y="48" width="12" height="12"/>
<rect x="396" y="48" width="12" height="12"/>
<rect x="408" y="48" width="12" height="12"/>
<rect x="420" y="48" width="12" height="12"/>
<rect x="432" y="48" width="12" height="12"/>
<rect x="48" y="60" width="12" height="12"/>
<rect x="120" y="60" width="12" height="12"/>
<rect x="156" y="60" width="12" height="12"/>
<rect x="204" y="60" width="12" height="12"/>
<rect x="252" y="60" width="12" height="12"/>
<rect x="264" y="60" width="12" height="12"/>
<rect x="276" y="60" width="12" height="12"/>
<rect x="288" y="60" width="12" height="12"/>
<rect x="300" y="60" width="12" height="12"/>
<rect x="324" y="60" width="12" height="12"/>
<rect x="360" y="60" width="12" height="12"/>
<rect x="432" y="60" width="12" height="12"/>
<rect x="48" y="72" width="12" height="12"/>
<rect x="72" y="72" width="12" height="12"/>
<rect x="84" y="72" width="12" height="12"/>
<rect x="96" y="72" width="12" height="12"/>
<rect x="120" y="72" width="12" height="12"/>
<rect x="144" y="72" width="12" height="12"/>
<rect x="180" y="72" width="12" height="12"/>
<rect x="228" y="72" width="12" height="12"/>
<rect x="324" y="72" width="12" height="12"/>
<rect x="360" y="72" width="12" height="12"/>
<rect x="384" y="72" width="12" height="12"/>
<rect x="396" y="72" width="12" height="12"/>
<rect x="408" y="72" width="12" height="12"/>
<rect x="432" y="72" width="12" height="12"/>
<rect x="48" y="84" width="12" height="12"/>
<rect x="72" y="84" width="12" height="12"/>
<rect x="84" y="84" width="12" height="12"/>
<rect x="96" y="84" width="12" height="12"/>
<rect x="120" y="84" width="12" height="12"/>
<rect x="156" y="84" width="12" height="12"/>
<rect x="192" y="84" width="12" height="12"/>
<rect x="204" y="84" width="12" height="12"/>
<rect x="240" y="84" width="12" height="12"/>
<rect x="264" y="84" width="12" height="12"/>
<rect x="312" y="84" width="12" height="12"/>
<rect x="324" y="84" width="12" height="12"/>
<rect x="360" y="84" width="12" height="12"/>
<rect x="384" y="84" width="12" height="12"/>
<rect x="396" y="84" width="12" height="12"/>
<rect x="408" y="84" width="12" height="12"/>
<rect x="432" y="84" width="12" height="12"/>
<rect x="48" y="96" width="12" height="12"/>
<rect x="72" y="96" width="12" height="12"/>
<rect x="84" y="96" width="12" height="12"/>
<rect x="96" y="96" width="12" height="12"/>
<rect x="120" y="96" width="12" height="12"/>
<rect x="156" y="96" width="12" height="12"/>
<rect x="192" y="96" width="12" height="12"/>
<rect x="204" y="96" width="12" height="12"/>
<rect x="240" y="96" width="12" height="12"/>
<rect x="264" y="96" width="12" height="12"/>
<rect x="276" y="96" width="12" height="12"/>
<rect x="288" y="96" width="12" height="12"/>
<rect x="312" y="96" width="12" height="12"/>
<rect x="324" y="96" width="12" height="12"/>
<rect x="360" y="96" width="12" height="12"/>
<rect x="384" y="96" width="12" height="12"/>
<rect x="396" y="96" width="12" height="12"/>
<rect x="408" y="96" width="12" height="12"/>
<rect x="432" y="96" width="12" height="12"/>
<rect x="48" y="108" width="12" height="12"/>
<rect x="120" y="108" width="12" height="12"/>
<rect x="168" y="108" width="12" height="12"/>
<rect x="180" y="108" width="12" height="12"/>
<rect x="192" y="108" width="12" height="12"/>
<rect x="216" y="108" width="12" height="12"/>
<rect x="228" y="108" width="12" height="12"/>
<rect x="240" y="108" width="12" height="12"/>
<rect x="252" y="108" width="12" height="12"/>
<rect x="276" y="108" width="12" height="12"/>
<rect x="288" y="108" width="12" height="12"/>
<rect x="324" y="108" width="12" height="12"/>
<rect x="336" y="108" width="12" height="12"/>
<rect x="360" y="108" width="12" height="12"/>
<rect x="432" y="108" width="12" height="12"/>
<rect x="48" y="120" width="12" height="12"/>
<rect x="60" y="120" width="12" height="12"/>
<rect x="72" y="120" width="12" height="12"/>
<rect x="84" y="120" width="12" height="12"/>
<rect x="96" y="120" width="12" height="12"/>
<rect x="108" y="120" width="12" height="12"/>
<rect x="120" y="120" width="12" height="12"/>
<rect x="144" y="120" width="12" height="12"/>
<rect x="168" y="120" width="12" height="12"/>
<rect x="192" y="120" width="12" height="12"/>
<rect x="216" y="120" width="12" height="12"/>
<rect x="240" y="120" width="12" height="12"/>
<rect x="264" y="120" width="12" height="12"/>
<rect x="288" y="120" width="12" height="12"/>
<rect x="312" y="120" width="12" height="12"/>
<rect x="336" y="120" width="12" height="12"/>
<rect x="360" y="120" width="12" height="12"/>
<rect x="372" y="120" width="12" height="12"/>
<rect x="384" y="120" width="12" height="12"/>
<rect x="396" y="120" width="12" height="12"/>
<rect x="408" y="120" width="12" height="12"/>
<rect x="420" y="120" width="12" height="12"/>
<rect x="432" y="120" width="12" height="12"/>
<rect x="144" y="132" width="12" height="12"/>
<rect x="180" y="132" width="12" height="12"/>
<rect x="228" y="132" width="12" height="12"/>
<rect x="252" y="132" width="12" height="12"/>
<rect x="264" y="132" width="12" height="12"/>
<rect x="276" y="132" width="12" height="12"/>
<rect x="288" y="132" width="12" height="12"/>
<rect x="300" y="132" width="12" height="12"/>
<rect x="312" y="132" width="12" height="12"/>
<rect x="336" y="132" width="12" height="12"/>
<rect x="48" y="144" width="12" height="12"/>
<rect x="60" y="144" width="12" height="12"/>
<rect x="72" y="144" width="12" height="12"/>
<rect x="96" y="144" width="12" height="12"/>
<rect x="108" y="144" width="12" height="12"/>
<rect x="120" y="144" width="12" height="12"/>
<rect x="132" y="144" width="12" height="12"/>
<rect x="144" y="144" width="12" height="12"/>
<rect x="192" y="144" width="12" height="12"/>
<rect x="240" y="144" width="12" height="12"/>
<rect x="252" y="144" width="12" height="12"/>
<rect x="288" y="144" width="12" height="12"/>
<rect x="300" y="144" width="12" height="12"/>
<rect x="324" y="144" width="12" height="12"/>
<rect x="336" y="144" width="12" height="12"/>
<rect x="348" y="144" width="12" height="12"/>
<rect x="360" y="144" width="12" height="12"/>
<rect x="408" y="144" width="12" height="12"/>
<rect x="60" y="156" width="12" height="12"/>
<rect x="84" y="156" width="12" height="12"/>
<rect x="96" y="156" width="12" height="12"/>
<rect x="132" y="156" width="12" height="12"/>
<rect x="156" y="156" width="12" height="12"/>
<rect x="180" y="156" width="12" height="12"/>
<rect x="192" y="156" width="12" height="12"/>
<rect x="204" y="156" width="12" height="12"/>
<rect x="228" y="156" width="12" height="12"/>
<rect x="288" y="156" width="12" height="12"/>
<rect x="360" y="156" width="12" height="12"/>
<rect x="372" y="156" width="12" height="12"/>
<rect x="396" y="156" width="12" height="12"/>
<rect x="408" y="156" width="12" height="12"/>
<rect x="432" y="156" width="12" height="12"/>
<rect x="48" y="168" width="12" height="12"/>
<rect x="72" y="168" width="12" height="12"/>
<rect x="96" y="168" width="12" height="12"/>
<rect x="120" y="168" width="12" height="12"/>
<rect x="144" y="168" width="12" height="12"/>
<rect x="168" y="168" width="12" height="12"/>
<rect x="180" y="168" width="12" height="12"/>
<rect x="192" y="168" width="12" height="12"/>
<rect x="216" y="168" width="12" height="12"/>
<rect x="252" y="168" width="12" height="12"/>
<rect x="312" y="168" width="12" height="12"/>
<rect x="336" y="168" width="12" height="12"/>
<rect x="360" y="168" width="12" height="12"/>
<rect x="432" y="168" width="12" height="12"/>
<rect x="60" y="180" width="12" height="12"/>
<rect x="84" y="180" width="12" height="12"/>
<rect x="156" y="180" width="12" height="12"/>
<rect x="168" y="180" width="12" height="12"/>
<rect x="192" y="180" width="12" height="12"/>
<rect x="204" y="180" width="12" height="12"/>
<rect x="216" y="180" width="12" height="12"/>
<rect x="252" y="180" width="12" height="12"/>
<rect x="300" y="180" width="12" height="12"/>
<rect x="312" y="180" width="12" height="12"/>
<rect x="324" y="180" width="12" height="12"/>
<rect x="384" y="180" width="12" height="12"/>
<rect x="396" y="180" width="12" height="12"/>
<rect x="420" y="180" width="12" height="12"/>
<rect x="48" y="192" width="12" height="12"/>
<rect x="72" y="192" width="12" height="12"/>
<rect x="96" y="192" width="12" height="12"/>
<rect x="120" y="192" width="12" height="12"/>
<rect x="132" y="192" width="12" height="12"/>
<rect x="144" y="192" width="12" height="12"/>
<rect x="168" y="192" width="12" height="12"/>
<rect x="180" y="192" width="12" height="12"/>
<rect x="216" y="192" width="12" height="12"/>
<rect x="228" y="192" width="12" height="12"/>
<rect x="240" y="192" width="12" height="12"/>
<rect x="252" y="192" width="12" height="12"/>
<rect x="288" y="192" width="12" height="12"/>
<rect x="300" y="192" width="12" height="12"/>
<rect x="360" y="192" width="12" height="12"/>
<rect x="432" y="192" width="12" height="12"/>
<rect x="60" y="204" width="12" height="12"/>
<rect x="84" y="204" width="12" height="12"/>
<rect x="108" y="204" width="12" height="12"/>
<rect x="132" y="204" width="12" height="12"/>
<rect x="168" y="204" width="12" height="12"/>
<rect x="180" y="204" width="12" height="12"/>
<rect x="216" y="204" width="12" height="12"/>
<rect x="240" y="204" width="12" height="12"/>
<rect x="252" y="204" width="12" height="12"/>
<rect x="288" y="204" width="12" height="12"/>
<rect x="348" y="204" width="12" height="12"/>
<rect x="360" y="204" width="12" height="12"/>
<rect x="372" y="204" width="12" height="12"/>
<rect x="408" y="204" width="12" height="12"/>
<rect x="432" y="204" width="12" height="12"/>
<rect x="48" y="216" width="12" height="12"/>
<rect x="72" y="216" width="12" height="12"/>
<rect x="96" y="216" width="12" height="12"/>
<rect x="120" y="216" width="12" height="12"/>
<rect x="132" y="216" width="12" height="12"/>
<rect x="168" y="216" width="12" height="12"/>
<rect x="204" y="216" width="12" height="12"/>
<rect x="240" y="216" width="12" height="12"/>
<rect x="264" y="216" width="12" height="12"/>
<rect x="336" y="216" width="12" height="12"/>
<rect x="348" y="216" width="12" height="12"/>
<rect x="384" y="216" width="12" height="12"/>
<rect x="396" y="216" width="12" height="12"/>
<rect x="420" y="216" width="12" height="12"/>
<rect x="432" y="216" width="12" height="12"/>
<rect x="60" y="228" width="12" height="12"/>
<rect x="84" y="228" width="12" height="12"/>
<rect x="108" y="228" width="12" height="12"/>
<rect x="132" y="228" width="12" height="12"/>
<rect x="144" y="228" width="12" height="12"/>
<rect x="156" y="228" width="12" height="12"/>
<rect x="168" y="228" width="12" height="12"/>
<rect x="180" y="228" width="12" height="12"/>
<rect x="228" y="228" width="12" height="12"/>
<rect x="252" y="228" width="12" height="12"/>
<rect x="264" y="228" width="12" height="12"/>
<rect x="276" y="228" width="12" height="12"/>
<rect x="300" y="228" width="12" height="12"/>
<rect x="324" y="228" width="12" height="12"/>
<rect x="348" y="228" width="12" height="12"/>
<rect x="360" y="228" width="12" height="12"/>
<rect x="372" y="228" width="12" height="12"/>
<rect x="384" y="228" width="12" height="12"/>
<rect x="396" y="228" width="12" height="12"/>
<rect x="420" y="228" width="12" height="12"/>
<rect x="48" y="240" width="12" height="12"/>
<rect x="72" y="240" width="12" height="12"/>
<rect x="96" y="240" width="12" height="12"/>
<rect x="120" y="240" width="12" height="12"/>
<rect x="132" y="240" width="12" height="12"/>
<rect x="192" y="240" width="12" height="12"/>
<rect x="252" y="240" width="12" height="12"/>
<rect x="276" y="240" width="12" height="12"/>
<rect x="288" y="240" width="12" height="12"/>
<rect x="300" y="240" width="12" height="12"/>
<rect x="360" y="240" width="12" height="12"/>
<rect x="372" y="240" width="12" height="12"/>
<rect x="420" y="240" width="12" height="12"/>
<rect x="432" y="240" width="12" height="12"/>
<rect x="60" y="252" width="12" height="12"/>
<rect x="84" y="252" width="12" height="12"/>
<rect x="108" y="252" width="12" height="12"/>
<rect x="144" y="252" width="12" height="12"/>
<rect x="168" y="252" width="12" height="12"/>
<rect x="180" y="252" width="12" height="12"/>
<rect x="192" y="252" width="12" height="12"/>
<rect x="204" y="252" width="12" height="12"/>
<rect x="240" y="252" width="12" height="12"/>
<rect x="252" y="252" width="12" height="12"/>
<rect x="288" y="252" width="12" height="12"/>
<rect x="360" y="252" width="12" height="12"/>
<rect x="372" y="252" width="12" height="12"/>
<rect x="408" y="252" width="12" height="12"/>
<rect x="432" y="252" width="12" height="12"/>
<rect x="48" y="264" width="12" height="12"/>
<rect x="72" y="264" width="12" height="12"/>
<rect x="96" y="264" width="12" height="12"/>
<rect x="120" y="264" width="12" height="12"/>
<rect x="132" y="264" width="12" height="12"/>
<rect x="144" y="264" width="12" height="12"/>
<rect x="168" y="264" width="12" height="12"/>
<rect x="180" y="264" width="12" height="12"/>
<rect x="192" y="264" width="12" height="12"/>
<rect x="216" y="264" width="12" height="12"/>
<rect x="252" y="264" width="12" height="12"/>
<rect x="288" y="264" width="12" height="12"/>
<rect x="312" y="264" width="12" height="12"/>
<rect x="336" y="264" width="12" height="12"/>
<rect x="360" y="264" width="12" height="12"/>
<rect x="396" y="264" width="12" height="12"/>
<rect x="420" y="264" width="12" height="12"/>
<rect x="432" y="264" width="12" height="12"/>
<rect x="60" y="276" width="12" height="12"/>
<rect x="84" y="276" width="12" height="12"/>
<rect x="108" y="276" width="12" height="12"/>
<rect x="132" y="276" width="12" height="12"/>
<rect x="144" y="276" width="12" height="12"/>
<rect x="156" y="276" width="12" height="12"/>
<rect x="192" y="276" width="12" height="12"/>
<rect x="204" y="276" width="12" height="12"/>
<rect x="216" y="276" width="12" height="12"/>
<rect x="228" y="276" width="12" height="12"/>
<rect x="252" y="276" width="12" height="12"/>
<rect x="264" y="276" width="12" height="12"/>
<rect x="288" y="276" width="12" height="12"/>
<rect x="300" y="276" width="12" height="12"/>
<rect x="312" y="276" width="12" height="12"/>
<rect x="324" y="276" width="12" height="12"/>
<rect x="348" y="276" width="12" height="12"/>
<rect x="360" y="276" width="12" height="12"/>
<rect x="396" y="276" width="12" height="12"/>
<rect x="420" y="276" width="12" height="12"/>
<rect x="48" y="288" width="12" height="12"/>
<rect x="72" y="288" width="12" height="12"/>
<rect x="96" y="288" width="12" height="12"/>
<rect x="120" y="288" width="12" height="12"/>
<rect x="132" y="288" width="12" height="12"/>
<rect x="144" y="288" width="12" height="12"/>
<rect x="156" y="288" width="12" height="12"/>
<rect x="180" y="288" width="12" height="12"/>
<rect x="216" y="288" width="12" height="12"/>
<rect x="240" y="288" width="12" height="12"/>
<rect x="252" y="288" width="12" height="12"/>
<rect x="300" y="288" width="12" height="12"/>
<rect x="360" y="288" width="12" height="12"/>
<rect x="372" y="288" width="12" height="12"/>
<rect x="396" y="288" width="12" height="12"/>
<rect x="420" y="288" width="12" height="12"/>
<rect x="432" y="288" width="12" height="12"/>
<rect x="60" y="300" width="12" height="12"/>
<rect x="84" y="300" width="12" height="12"/>
<rect x="108" y="300" width="12" height="12"/>
<rect x="132" y="300" width="12" height="12"/>
<rect x="144" y="300" width="12" height="12"/>
<rect x="180" y="300" width="12" height="12"/>
<rect x="216" y="300" width="12" height="12"/>
<rect x="240" y="300" width="12" height="12"/>
<rect x="252" y="300" width="12" height="12"/>
<rect x="288" y="300" width="12" height="12"/>
<rect x="300" y="300" width="12" height="12"/>
<rect x="312" y="300" width="12" height="12"/>
<rect x="360" y="300" width="12" height="12"/>
<rect x="372" y="300" width="12" height="12"/>
<rect x="396" y="300" width="12" height="12"/>
<rect x="432" y="300" width="12" height="12"/>
<rect x="48" y="312" width="12" height="12"/>
<rect x="72" y="312" width="12" height="12"/>
<rect x="96" y="312" width="12" height="12"/>
<rect x="120" y="312" width="12" height="12"/>
<rect x="132" y="312" width="12" height="12"/>
<rect x="156" y="312" width="12" height="12"/>
<rect x="168" y="312" width="12" height="12"/>
<rect x="204" y="312" width="12" height="12"/>
<rect x="240" y="312" width="12" height="12"/>
<rect x="288" y="312" width="12" height="12"/>
<rect x="336" y="312" width="12" height="12"/>
<rect x="360" y="312" width="12" height="12"/>
<rect x="372" y="312" width="12" height="12"/>
<rect x="384" y="312" width="12" height="12"/>
<rect x="396" y="312" width="12" height="12"/>
<rect x="408" y="312" width="12" height="12"/>
<rect x="420" y="312" width="12" height="12"/>
<rect x="432" y="312" width="12" height="12"/>
<rect x="60" y="324" width="12" height="12"/>
<rect x="84" y="324" width="12" height="12"/>
<rect x="108" y="324" width="12" height="12"/>
<rect x="144" y="324" width="12" height="12"/>
<rect x="156" y="324" width="12" height="12"/>
<rect x="180" y="324" width="12" height="12"/>
<rect x="240" y="324" width="12" height="12"/>
<rect x="252" y="324" width="12" height="12"/>
<rect x="264" y="324" width="12" height="12"/>
<rect x="300" y="324" width="12" height="12"/>
<rect x="324" y="324" width="12" height="12"/>
<rect x="348" y="324" width="12" height="12"/>
<rect x="372" y="324" width="12" height="12"/>
<rect x="396" y="324" width="12" height="12"/>
<rect x="420" y="324" width="12" height="12"/>
<rect x="48" y="336" width="12" height="12"/>
<rect x="72" y="336" width="12" height="12"/>
<rect x="96" y="336" width="12" height="12"/>
<rect x="120" y="336" width="12" height="12"/>
<rect x="144" y="336" width="12" height="12"/>
<rect x="192" y="336" width="12" height="12"/>
<rect x="228" y="336" width="12" height="12"/>
<rect x="240" y="336" width="12" height="12"/>
<rect x="252" y="336" width="12" height="12"/>
<rect x="300" y="336" width="12" height="12"/>
<rect x="324" y="336" width="12" height="12"/>
<rect x="336" y="336" width="12" height="12"/>
<rect x="348" y="336" width="12" height="12"/>
<rect x="360" y="336" width="12" height="12"/>
<rect x="372" y="336" width="12" height="12"/>
<rect x="384" y="336" width="12" height="12"/>
<rect x="396" y="336" width="12" height="12"/>
<rect x="144" y="348" width="12" height="12"/>
<rect x="156" y="348" width="12" height="12"/>
<rect x="168" y="348" width="12" height="12"/>
<rect x="180" y="348" width="12" height="12"/>
<rect x="192" y="348" width="12" height="12"/>
<rect x="204" y="348" width="12" height="12"/>
<rect x="288" y="348" width="12" height="12"/>
<rect x="312" y="348" width="12" height="12"/>
<rect x="336" y="348" width="12" height="12"/>
<rect x="384" y="348" width="12" height="12"/>
<rect x="396" y="348" width="12" height="12"/>
<rect x="408" y="348" width="12" height="12"/>
<rect x="420" y="348" width="12" height="12"/>
<rect x="432" y="348" width="12" height="12"/>
<rect x="48" y="360" width="12" height="12"/>
<rect x="60" y="360" width="12" height="12"/>
<rect x="72" y="360" width="12" height="12"/>
<rect x="84" y="360" width="12" height="12"/>
<rect x="96" y="360" width="12" height="12"/>
<rect x="108" y="360" width="12" height="12"/>
<rect x="120" y="360" width="12" height="12"/>
<rect x="144" y="360" width="12" height="12"/>
<rect x="168" y="360" width="12" height="12"/>
<rect x="180" y="360" width="12" height="12"/>
<rect x="192" y="360" width="12" height="12"/>
<rect x="216" y="360" width="12" height="12"/>
<rect x="240" y="360" width="12" height="12"/>
<rect x="312" y="360" width="12" height="12"/>
<rect x="324" y="360" width="12" height="12"/>
<rect x="336" y="360" width="12" height="12"/>
<rect x="360" y="360" width="12" height="12"/>
<rect x="384" y="360" width="12" height="12"/>
<rect x="396" y="360" width="12" height="12"/>
<rect x="408" y="360" width="12" height="12"/>
<rect x="420" y="360" width="12" height="12"/>
<rect x="432" y="360" width="12" height="12"/>
<rect x="48" y="372" width="12" height="12"/>
<rect x="120" y="372" width="12" height="12"/>
<rect x="144" y="372" width="12" height="12"/>
<rect x="156" y="372" width="12" height="12"/>
<rect x="168" y="372" width="12" height="12"/>
<rect x="192" y="372" width="12" height="12"/>
<rect x="204" y="372" width="12" height="12"/>
<rect x="216" y="372" width="12" height="12"/>
<rect x="228" y="372" width="12" height="12"/>
<rect x="240" y="372" width="12" height="12"/>
<rect x="252" y="372" width="12" height="12"/>
<rect x="264" y="372" width="12" height="12"/>
<rect x="276" y="372" width="12" height="12"/>
<rect x="288" y="372" width="12" height="12"/>
<rect x="300" y="372" width="12" height="12"/>
<rect x="312" y="372" width="12" height="12"/>
<rect x="324" y="372" width="12" height="12"/>
<rect x="336" y="372" width="12" height="12"/>
<rect x="384" y="372" width="12" height="12"/>
<rect x="396" y="372" width="12" height="12"/>
<rect x="48" y="384" width="12" height="12"/>
<rect x="72" y="384" width="12" height="12"/>
<rect x="84" y="384" width="12" height="12"/>
<rect x="96" y="384" width="12" height="12"/>
<rect x="120" y="384" width="12" height="12"/>
<rect x="144" y="384" width="12" height="12"/>
<rect x="180" y="384" width="12" height="12"/>
<rect x="216" y="384" width="12" height="12"/>
<rect x="252" y="384" width="12" height="12"/>
<rect x="288" y="384" width="12" height="12"/>
<rect x="300" y="384" width="12" height="12"/>
<rect x="312" y="384" width="12" height="12"/>
<rect x="336" y="384" width="12" height="12"/>
<rect x="348" y="384" width="12" height="12"/>
<rect x="360" y="384" width="12" height="12"/>
<rect x="372" y="384" width="12" height="12"/>
<rect x="384" y="384" width="12" height="12"/>
<rect x="396" y="384" width="12" height="12"/>
<rect x="48" y="396" width="12" height="12"/>
<rect x="72" y="396" width="12" height="12"/>
<rect x="84" y="396" width="12" height="12"/>
<rect x="96" y="396" width="12" height="12"/>
<rect x="120" y="396" width="12" height="12"/>
<rect x="156" y="396" width="12" height="12"/>
<rect x="168" y="396" width="12" height="12"/>
<rect x="180" y="396" width="12" height="12"/>
<rect x="216" y="396" width="12" height="12"/>
<rect x="240" y="396" width="12" height="12"/>
<rect x="252" y="396" width="12" height="12"/>
<rect x="288" y="396" width="12" height="12"/>
<rect x="324" y="396" width="12" height="12"/>
<rect x="336" y="396" width="12" height="12"/>
<rect x="348" y="396" width="12" height="12"/>
<rect x="384" y="396" width="12" height="12"/>
<rect x="396" y="396" width="12" height="12"/>
<rect x="432" y="396" width="12" height="12"/>
<rect x="48" y="408" width="12" height="12"/>
<rect x="72" y="408" width="12" height="12"/>
<rect x="84" y="408" width="12" height="12"/>
<rect x="96" y="408" width="12" height="12"/>
<rect x="120" y="408" width="12" height="12"/>
<rect x="144" y="408" width="12" height="12"/>
<rect x="156" y="408" width="12" height="12"/>
<rect x="168" y="408" width="12" height="12"/>
<rect x="204" y="408" width="12" height="12"/>
<rect x="240" y="408" width="12" height="12"/>
<rect x="348" y="408" width="12" height="12"/>
<rect x="384" y="408" width="12" height="12"/>
<rect x="432" y="408" width="12" height="12"/>
<rect x="48" y="420" width="12" height="12"/>
<rect x="120" y="420" width="12" height="12"/>
<rect x="144" y="420" width="12" height="12"/>
<rect x="156" y="420" width="12" height="12"/>
<rect x="180" y="420" width="12" height="12"/>
<rect x="240" y="420" width="12" height="12"/>
<rect x="252" y="420" width="12" height="12"/>
<rect x="264" y="420" width="12" height="12"/>
<rect x="300" y="420" width="12" height="12"/>
<rect x="312" y="420" width="12" height="12"/>
<rect x="336" y="420" width="12" height="12"/>
<rect x="348" y="420" width="12" height="12"/>
<rect x="360" y="420" width="12" height="12"/>
<rect x="372" y="420" width="12" height="12"/>
<rect x="384" y="420" width="12" height="12"/>
<rect x="396" y="420" width="12" height="12"/>
<rect x="420" y="420" width="12" height="12"/>
<rect x="48" y="432" width="12" height="12"/>
<rect x="60" y="432" width="12" height="12"/>
<rect x="72" y="432" width="12" height="12"/>
<rect x="84" y="432" width="12" height="12"/>
<rect x="96" y="432" width="12" height="12"/>
<rect x="108" y="432" width="12" height="12"/>
<rect x="120" y="432" width="12" height="12"/>
<rect x="144" y="432" width="12" height="12"/>
<rect x="168" y="432" width="12" height="12"/>
<rect x="192" y="432" width="12" height="12"/>
<rect x="228" y="432" width="12" height="12"/>
<rect x="240" y="432" width="12" height="12"/>
<rect x="252" y="432" width="12" height="12"/>
<rect x="300" y="432" width="12" height="12"/>
<rect x="336" y="432" width="12" height="12"/>
<rect x="348" y="432" width="12" height="12"/>
<rect x="360" y="432" width="12" height="12"/>
<rect x="372" y="432" width="12" height="12"/>
<rect x="420" y="432" width="12" height="12"/>
<rect x="432" y="432" width="12" height="12"/>
</g>
</svg>